<?xml version="1.0" encoding="UTF-8"?>
<svg xmlns="http://www.w3.org/2000/svg" viewBox="0 0 800 800" fill="none" stroke="#222" stroke-width="0.01">
  <g fill="none" stroke="#222">
    <path d="M 0.0000 0.0000 L 800.0000 0.0000 L 800.0000 800.0000 L 0.0000 800.0000 Z" />
    <path d="M 200.0000 0.0000 L 200.0000 800.0000" />
    <path d="M 0.0000 200.0000 L 800.0000 200.0000" />
    <path d="M 400.0000 0.0000 L 400.0000 800.0000" />
    <path d="M 0.0000 400.0000 L 800.0000 400.0000" />
    <path d="M 600.0000 0.0000 L 600.0000 800.0000" />
    <path d="M 0.0000 600.0000 L 800.0000 600.0000" />
    <path d="M 0.0000 0.0000 L 800.0000 800.0000" />
    <path d="M 0.0000 800.0000 L 800.0000 0.0000" />
    <path d="M 488.0000 400.0000 C 488.0000 448.6011 448.6011 488.0000 400.0000 488.0000 C 351.3989 488.0000 312.0000 448.6011 312.0000 400.0000 C 312.0000 351.3989 351.3989 312.0000 400.0000 312.0000 C 448.6011 312.0000 488.0000 351.3989 488.0000 400.0000 Z" />
    <path d="M 680.0000 400.0000 C 680.0000 430.9279 626.2742 456.0000 560.0000 456.0000 C 493.7258 456.0000 440.0000 430.9279 440.0000 400.0000 C 440.0000 369.0721 493.7258 344.0000 560.0000 344.0000 C 626.2742 344.0000 680.0000 369.0721 680.0000 400.0000 Z" />
    <path d="M 400.0000 680.0000 C 369.0721 680.0000 344.0000 626.2742 344.0000 560.0000 C 344.0000 493.7258 369.0721 440.0000 400.0000 440.0000 C 430.9279 440.0000 456.0000 493.7258 456.0000 560.0000 C 456.0000 626.2742 430.9279 680.0000 400.0000 680.0000 Z" />
    <path d="M 120.0000 400.0000 C 120.0000 369.0721 173.7258 344.0000 240.0000 344.0000 C 306.2742 344.0000 360.0000 369.0721 360.0000 400.0000 C 360.0000 430.9279 306.2742 456.0000 240.0000 456.0000 C 173.7258 456.0000 120.0000 430.9279 120.0000 400.0000 Z" />
    <path d="M 400.0000 120.0000 C 430.9279 120.0000 456.0000 173.7258 456.0000 240.0000 C 456.0000 306.2742 430.9279 360.0000 400.0000 360.0000 C 369.0721 360.0000 344.0000 306.2742 344.0000 240.0000 C 344.0000 173.7258 369.0721 120.0000 400.0000 120.0000 Z" />
  </g>
</svg>
