<?xml version="1.0" encoding="UTF-8"?>
<svg xmlns="http://www.w3.org/2000/svg" viewBox="0 0 800 800" width="800" height="800" fill="none" stroke="#0b3d2e" stroke-width="2">
  <g fill="#e9f5ec" stroke="#0b3d2e">
    <path d="M 378.3140 720.0000 L 375.6041 709.7500 L 372.8542 699.5000 L 370.0648 689.2500 L 367.2361 679.0000 L 364.3685 668.7500 L 361.4624 658.5000 L 358.5181 648.2500 L 355.5360 638.0000 L 352.5165 627.7500 L 350.0322 617.5000 L 348.3735 607.2500 L 346.6841 597.0000 L 344.9641 586.7500 L 343.2138 576.5000 L 341.4333 566.2500 L 339.6230 556.0000 L 339.2186 545.7500 L 338.7898 535.5000 L 338.3365 525.2500 L 337.8588 515.0000 L 337.3568 504.7500 L 336.8306 494.5000 L 336.2802 484.2500 L 335.7056 474.0000 L 335.1071 463.7500 L 334.4846 453.5000 L 333.8382 443.2500 L 333.1679 433.0000 L 332.6954 422.7500 L 333.0866 412.5000 L 333.4569 402.2500 L 333.8064 392.0000 L 334.1349 381.7500 L 334.4424 371.5000 L 334.7290 361.2500 L 335.8791 351.0000 L 337.2313 340.7500 L 338.5646 330.5000 L 339.8788 320.2500 L 341.1738 310.0000 L 342.4494 299.7500 L 343.7055 289.5000 L 344.9418 279.2500 L 346.1583 269.0000 L 347.3548 258.7500 L 348.5312 248.5000 L 349.6872 238.2500 L 350.8227 228.0000 L 352.8156 217.7500 L 354.7888 207.5000 L 356.7420 197.2500 L 358.6751 187.0000 L 360.5877 176.7500 L 362.4796 166.5000 L 365.5844 156.2500 L 369.4920 146.0000 L 373.3796 135.7500 L 377.2470 125.5000 L 381.0936 115.2500 L 384.9190 105.0000 L 388.7228 94.7500 L 392.5045 84.5000 L 396.2637 74.2500 L 400.0000 64.0000 L 400.0000 64.0000 L 405.2867 74.2500 L 410.5470 84.5000 L 415.7807 94.7500 L 420.9872 105.0000 L 426.1662 115.2500 L 431.3171 125.5000 L 436.4395 135.7500 L 441.5330 146.0000 L 446.5972 156.2500 L 450.8094 166.5000 L 453.7596 176.7500 L 456.6812 187.0000 L 459.5740 197.2500 L 462.4378 207.5000 L 465.2723 217.7500 L 468.0773 228.0000 L 469.9757 238.2500 L 471.8454 248.5000 L 473.6862 258.7500 L 475.4979 269.0000 L 477.2804 279.2500 L 479.0336 289.5000 L 480.7572 299.7500 L 482.4512 310.0000 L 484.1153 320.2500 L 485.7494 330.5000 L 487.3535 340.7500 L 488.9272 351.0000 L 490.2496 361.2500 L 490.6591 371.5000 L 491.0405 381.7500 L 491.3936 392.0000 L 491.7185 402.2500 L 492.0150 412.5000 L 492.2832 422.7500 L 491.6383 433.0000 L 490.7466 443.2500 L 489.8295 453.5000 L 488.8870 463.7500 L 487.9194 474.0000 L 486.9265 484.2500 L 485.9085 494.5000 L 484.8655 504.7500 L 483.7975 515.0000 L 482.7046 525.2500 L 481.5868 535.5000 L 480.4443 545.7500 L 479.2770 556.0000 L 476.6546 566.2500 L 474.0128 576.5000 L 471.3519 586.7500 L 468.6722 597.0000 L 465.9737 607.2500 L 463.2568 617.5000 L 459.6651 627.7500 L 455.4890 638.0000 L 451.3011 648.2500 L 447.1017 658.5000 L 442.8913 668.7500 L 438.6702 679.0000 L 434.4387 689.2500 L 430.1973 699.5000 L 425.9463 709.7500 L 421.6860 720.0000 Z" />
    <path d="M 400.0000 720.0000 L 400.7752 709.7500 L 401.5258 699.5000 L 402.2518 689.2500 L 402.9531 679.0000 L 403.6299 668.7500 L 404.2820 658.5000 L 404.9096 648.2500 L 405.5125 638.0000 L 406.0908 627.7500 L 406.6445 617.5000 L 407.1736 607.2500 L 407.6781 597.0000 L 408.1580 586.7500 L 408.6133 576.5000 L 409.0439 566.2500 L 409.4500 556.0000 L 409.8314 545.7500 L 410.1883 535.5000 L 410.5205 525.2500 L 410.8281 515.0000 L 411.1111 504.7500 L 411.3695 494.5000 L 411.6033 484.2500 L 411.8125 474.0000 L 411.9971 463.7500 L 412.1570 453.5000 L 412.2924 443.2500 L 412.4031 433.0000 L 412.4893 422.7500 L 412.5508 412.5000 L 412.5877 402.2500 L 412.6000 392.0000 L 412.5877 381.7500 L 412.5508 371.5000 L 412.4893 361.2500 L 412.4031 351.0000 L 412.2924 340.7500 L 412.1570 330.5000 L 411.9971 320.2500 L 411.8125 310.0000 L 411.6033 299.7500 L 411.3695 289.5000 L 411.1111 279.2500 L 410.8281 269.0000 L 410.5205 258.7500 L 410.1883 248.5000 L 409.8314 238.2500 L 409.4500 228.0000 L 409.0439 217.7500 L 408.6133 207.5000 L 408.1580 197.2500 L 407.6781 187.0000 L 407.1736 176.7500 L 406.6445 166.5000 L 406.0908 156.2500 L 405.5125 146.0000 L 404.9096 135.7500 L 404.2820 125.5000 L 403.6299 115.2500 L 402.9531 105.0000 L 402.2518 94.7500 L 401.5258 84.5000 L 400.7752 74.2500 L 400.0000 64.0000" />
  </g>
</svg>
